# xmcd
#
# Track frame offsets: 
#        300
#        17887
#        41247
#        58333
#        76827
#        98257
#        122588
#        139956
#        176140
#        190395
#        222378
#        235021
#        282421
#
# Disc length: 4081 seconds
#
# Revision: 0
# Processed by: cddbd v1.5.2PL0 Copyright (c) Steve Scherf et al.
# Submitted via: ExactAudioCopy v0.99pb5
#
DISCID=bf0fed0d
DTITLE=Bronco Bob - Kiss My Blues
DYEAR=2007
DGENRE=General Blues
TTITLE0=Standin On Shaky Ground
TTITLE1=Katy
TTITLE2=Testify
TTITLE3=Givin It Up For Your Love
TTITLE4=It Ain't The Same Thang
TTITLE5=Only In It For The Money
TTITLE6=Lead Me On
TTITLE7=I'll Play The Blues For You
TTITLE8=Hold On
TTITLE9=Mustang Sally
TTITLE10=Got A Line
TTITLE11=Hey Joe
TTITLE12=Livin In America
EXTD=
EXTT0=
EXTT1=
EXTT2=
EXTT3=
EXTT4=
EXTT5=
EXTT6=
EXTT7=
EXTT8=
EXTT9=
EXTT10=
EXTT11=
EXTT12=
PLAYORDER=
